<?xml version="1.0" encoding="utf-8"?>
<!-- Generator: Adobe Illustrator 14.0.0, SVG Export Plug-In . SVG Version: 6.00 Build 43363)  -->
<!DOCTYPE svg PUBLIC "-//W3C//DTD SVG 1.1//EN" "http://www.w3.org/Graphics/SVG/1.1/DTD/svg11.dtd">
<svg version="1.1" id="Layer_1" xmlns="http://www.w3.org/2000/svg" xmlns:xlink="http://www.w3.org/1999/xlink" x="0px" y="0px"
	 width="100px" height="100px" viewBox="0 0 100 100" enable-background="new 0 0 100 100" xml:space="preserve">
<g>
	<path fill="#8C262D" stroke="#000000" stroke-width="0.25" d="M10.881,23.601v50.333H5.475V23.601H10.881z M37.434,54.708
		l8.555,19.226h-6.365L31.617,55.86c-0.958,0.071-1.984,0.144-3.011,0.144H13.413v-5.472h15.192c9.17,0,13.14-3.313,13.14-11.017
		c0-6.409-4.174-10.441-13.14-10.441H13.413v-5.473h15.192c13.208,0,18.615,6.265,18.615,15.914
		C47.22,47.075,44.141,52.404,37.434,54.708z"/>
	<path fill="#8C262D" stroke="#000000" stroke-width="0.25" d="M73.906,74.941c-7.528-0.071-15.672-2.304-19.915-7.488l3.695-3.889
		c3.012,3.313,8.76,5.833,16.22,5.904V74.941z M96.353,60.036c0,9.433-7.186,14.401-19.983,14.834v-5.401
		c9.787-0.504,14.509-4.464,14.509-8.856c0-4.824-3.011-7.345-15.329-9.865l-1.917-0.432c-15.056-2.952-17.998-7.201-17.998-13.897
		c0-8.785,6.569-13.465,18.272-13.969v5.472c-8.008,0.504-12.798,3.672-12.798,8.137c0,4.321,2.053,6.553,13.688,9.001l1.916,0.36
		C90.057,48.011,96.353,52.404,96.353,60.036z M90.878,32.89c-3.764-3.096-8.896-4.896-14.509-4.969v-5.472
		c7.665,0.072,13.619,2.304,18.341,6.48L90.878,32.89z"/>
</g>
</svg>
